<?xml version="1.0" encoding="utf-8"?>
<!-- Svg Vector Icons : http://www.onlinewebfonts.com/icon -->
<!DOCTYPE svg PUBLIC "-//W3C//DTD SVG 1.1//EN" "http://www.w3.org/Graphics/SVG/1.1/DTD/svg11.dtd">
<svg version="1.1" xmlns="http://www.w3.org/2000/svg" xmlns:xlink="http://www.w3.org/1999/xlink" x="0px" y="0px" viewBox="0 0 1000 1000" enable-background="new 0 0 1000 1000" xml:space="preserve">
<metadata> Svg Vector Icons : http://www.onlinewebfonts.com/icon </metadata>
<g><path d="M394.4,663.3l1,22.8L382,708.4l41.3,180.3l-58.3,28.3l-58.3-28.3l41.3-180.3l-13.5-22.3l1-22.8C361.2,661.9,368.7,661.9,394.4,663.3L394.4,663.3z"/><path d="M353.6,36.6h571.5c17.8,0,34.1,7.3,45.8,19.1c11.8,11.7,19.1,28,19.1,45.8v356.9c0,17.8-7.3,34-19.1,45.8l-0.1,0v0c-11.8,11.7-28,19-45.8,19H672.4l-89.4,70.2l-31.9,25l6.1-40l7.4-48.9l31.7,4.8l-1.3,8.8l146.5-115.1l19.9,25.2l-48.2,37.9h211.7c9,0,17.2-3.7,23.2-9.6l0.1,0c5.9-5.9,9.6-14.1,9.6-23.2V101.5c0-9-3.7-17.2-9.6-23.2c-6-5.9-14.2-9.7-23.2-9.7H353.6c-9,0-17.3,3.7-23.2,9.6c-5.9,6-9.6,14.2-9.6,23.2v23.3h-32.1v-23.3c0-17.8,7.3-34,19-45.8l0.1,0C319.6,43.9,335.7,36.6,353.6,36.6L353.6,36.6z"/><path d="M760.9,306.9v24.4h133.8v-24.4H760.9z"/><path d="M619.7,306.9v24.4h120v-24.4H619.7z"/><path d="M827.3,224.2v24.4h67.5v-24.4H827.3z"/><path d="M773.1,224.2v24.4h27.1v-24.4H773.1z"/><path d="M694.5,224.2v24.4h54.2v-24.4H694.5z"/><path d="M619.7,224.2v24.4h54.1v-24.4H619.7z"/><path d="M619.7,147.7v24.4h275.1v-24.4H619.7z"/><path d="M551.2,362.4c11-146.6-9.7-231-185.4-207.4c-59.6,8-124.4-9.6-161.4,17.5c-46.5,43.8-49.8,109.6-37.1,186.7c-2.8,1.5-5.6,3.2-8.4,5.1l-8.3,5.6l-0.1,9.9c-0.4,25.7,2.8,47.4,9.7,64c6.3,15.1,15.6,26.4,28,33.1c14.8,50.4,36,88.2,62.6,115.4c28.9,29.7,63.8,46.5,103.2,53.2l3.5,0.6l3.5-0.7c43.6-9.2,78.5-26.8,106.2-56.2c25.7-27.2,45-64,59.1-113c12-7,20.9-18.3,27-33.3c6.6-16.5,9.7-37.8,9.3-63l-0.1-9.9l-8.3-5.6C553.2,363.6,552.2,363,551.2,362.4L551.2,362.4z"/><path d="M189.4,397.9c0.8,12.5,3,23,6.4,31.2c3.4,8.3,8.1,13.7,14.1,15.5l10.2,3.2l2.8,10.3c13.1,48.2,31.9,83.4,55.5,107.6c22,22.5,48.4,35.7,78.5,41.4c34.1-7.8,61.2-21.7,82.6-44.2c22.6-23.9,39.5-58,52.2-105.1l2.6-9.8l9.6-3.4c5.8-2,10.5-7.5,13.8-15.9c3.2-8.1,5.3-18.4,6.2-30.6c-5.6,0.1-11.3,0.2-17.8,1l-2.6-8.7l-5.5,0.3l-3.2-16.7c-2.5-13-6.2-25.1-11.1-36.2c-14.7,6.2-31.2-5.2-46-13.8l-7.5,23.6l-12.1-1.6l1.6-14.4l-12.8,20.6l-11.4-2.3l11.2-30.5l0,0c-62.7,55.7-136.1,52.1-177,21c-1.3,3.2-2.5,6.4-3.7,9.7c-2.8,11.3-6,26-8.8,37.2l-0.8,4.1l-0.3,0c-0.6,2.3-1.2,4.2-1.7,6C209.1,393.9,198.7,396.5,189.4,397.9L189.4,397.9z"/><path d="M124.1,645.4l-7.8,0l-6,5.2c-42.1,36.7-66.7,90.2-81.1,144.8c-13.8,53-18,107-18.8,146.9L10,963.4h21.1h654h18.5l2-18.5c5.2-48-3-108.8-20.9-164.6c-17-53.2-43.2-102.7-75.4-133l-6.3-6l-8.5,0.3L494.1,645v41.4l92.8-3.2c24.1,25.8,44.4,65.9,58.5,109.7c13.9,43.4,21.4,89.8,20.3,129c-505.9,0-95.6,0-613.3,0c1.7-34.3,6.2-75.7,16.8-116.2c11.8-45,31.1-88.6,62.7-118.9l84.2,0.8v-41.3L124.1,645.4z"/></g>
</svg>